<?xml version="1.0" encoding="UTF-8"?>
<svg id="Layer_1" xmlns="http://www.w3.org/2000/svg" version="1.1" viewBox="0 0 841.89 595.28">
  <!-- Generator: Adobe Illustrator 30.2.0, SVG Export Plug-In . SVG Version: 2.1.1 Build 105)  -->
  <defs>
    <style>
      .st0 {
        fill: #010101;
      }
    </style>
  </defs>
  <g>
    <path class="st0" d="M322.32,197.81c1.09,2.77-1,4.09-1.94,5.79-8.75,15.78-16.44,31.94-17,50.46-.72,23.94,11.46,41.44,28.5,56.41,15.76,13.85,33.98,24.34,50.59,37.04,6.24,4.77,11.95,10.09,17.03,16.05,10.13,11.87,11.52,25.04,5.6,39.27-3.68,8.84-9.84,16.02-15.41,23.6-.87,1.19-2.14,2.17-3.51,1.42-1.85-1.03-.16-2.26.19-3.45,2.66-8.81-.55-16.85-3.98-24.56-6.94-15.6-19.1-26.82-32.46-36.84-20.42-15.31-39.68-32.06-59.22-48.44-8.57-7.18-12.21-17.64-13.43-28.71-1.94-17.68,3.19-33.65,11.98-48.7,8.17-13.99,18.35-26.41,29.73-37.88.8-.81,1.58-1.7,3.33-1.46Z"/>
    <path class="st0" d="M436.01,389.17c2.44-26.55-12.23-44.1-30.46-58.96-20.49-16.71-40.93-33.49-61.62-49.96-16.52-13.15-20.41-30.6-17.66-50.09,3.14-22.25,15.21-40.24,29.66-56.69,4.9-5.58,9.13-11.98,15.83-16.14,1.6,3.48-1.12,5.06-2.3,7.03-8.94,14.96-16.11,30.62-17.49,48.23-2.06,26.33,11.6,45.05,30.44,61.04,15.65,13.28,33.63,23.37,49.69,36.07,6.85,5.42,13.38,11.18,18.37,18.56,4.55,6.73,7.02,13.92,6.48,22.07-1.08,16.16-10.83,27.58-20.93,38.84Z"/>
    <path class="st0" d="M420.16,132.74c-8.25,15.96-16.41,31.9-17.32,50.45-1.04,21.16,8.1,37.68,22.58,52.05,16.63,16.49,37.13,27.82,55.5,41.99,3.28,2.53,6.61,5,9.68,7.76,20.97,18.76,22.95,39.24,6.01,62.26-2.45,3.32-5.2,6.43-7.89,9.57-.37.43-1.15.5-1.7.72-.4-.45-.94-.79-.91-1.08,2.46-26.81-13.23-44.25-31.98-59.16-19.98-15.89-39.44-32.39-59.47-48.21-17.7-13.97-21.09-32.95-16.87-53.51,5.23-25.51,20.35-45.42,38.75-63.08,1.21.09,2.41.17,3.61.26Z"/>
    <g>
      <path class="st0" d="M455.08,399.19c0-3.56,1.3-6.28,3.91-8.15,2.61-1.87,5.93-2.8,9.96-2.8,5.01,0,9.33.98,12.96,2.93v10.09c-3.63-2.32-7.53-3.45-11.7-3.38-2.09,0-3.13.52-3.13,1.57,0,.47.32.9.96,1.29s1.46.73,2.45,1.03,2.1.63,3.33.98c1.23.35,2.46.82,3.68,1.39,1.23.57,2.34,1.24,3.33,2.02s1.81,1.82,2.45,3.13.96,2.79.96,4.44c0,7.64-4.95,11.45-14.83,11.45-5.38,0-10.06-1.11-14.02-3.33v-10.54c4.2,2.76,8.49,4.14,12.87,4.14,1.48,0,2.51-.13,3.1-.4.59-.27.88-.71.88-1.31,0-.54-.42-1.03-1.26-1.49-.84-.45-1.9-.84-3.18-1.16s-2.66-.78-4.14-1.39-2.86-1.29-4.14-2.07-2.34-1.89-3.18-3.35c-.84-1.46-1.26-3.15-1.26-5.07Z"/>
      <path class="st0" d="M488.08,389.05h11.65v35.31h-11.65v-35.31Z"/>
      <path class="st0" d="M504.12,399.19c0-3.56,1.3-6.28,3.91-8.15,2.61-1.87,5.93-2.8,9.96-2.8,5.01,0,9.33.98,12.96,2.93v10.09c-3.63-2.32-7.53-3.45-11.7-3.38-2.09,0-3.13.52-3.13,1.57,0,.47.32.9.96,1.29s1.46.73,2.45,1.03,2.1.63,3.33.98c1.23.35,2.46.82,3.68,1.39,1.23.57,2.34,1.24,3.33,2.02s1.81,1.82,2.45,3.13.96,2.79.96,4.44c0,7.64-4.95,11.45-14.83,11.45-5.38,0-10.06-1.11-14.02-3.33v-10.54c4.2,2.76,8.49,4.14,12.87,4.14,1.48,0,2.51-.13,3.1-.4.59-.27.88-.71.88-1.31,0-.54-.42-1.03-1.26-1.49-.84-.45-1.9-.84-3.18-1.16s-2.66-.78-4.14-1.39c-1.48-.6-2.86-1.29-4.14-2.07s-2.34-1.89-3.18-3.35c-.84-1.46-1.26-3.15-1.26-5.07Z"/>
      <path class="st0" d="M544.83,424.36h-11.81l13.22-35.31h12.51l13.17,35.31h-11.8l-1.51-4.69h-12.21l-1.56,4.69ZM551.54,403.73l-2.47,7.52h6.91l-2.47-7.52c-.47-1.48-.81-2.99-1.01-4.54-.2,1.35-.52,2.86-.96,4.54Z"/>
    </g>
  </g>
  <path class="st0" d="M328.18,462.28c-23.05,0-44.81-11.22-58.21-30.01l4.71-3.36c12.32,17.27,32.32,27.58,53.5,27.58,36.21,0,65.66-29.46,65.66-65.66h5.79c0,39.4-32.05,71.45-71.45,71.45Z"/>
  <rect class="st0" x="365.01" y="312.94" width="11.98" height="11.98" rx=".54" ry=".54" transform="translate(334.18 -168.92) rotate(45)"/>
</svg>